<svg width="30" height="30" viewBox="0 0 30 30" fill="none" xmlns="http://www.w3.org/2000/svg">
    <path fill-rule="evenodd" clip-rule="evenodd" d="M30 2.50012C30 1.12537 28.8746 0 27.4999 0H2.50012C1.12537 0 0 1.12537 0 2.50012V27.5002C0 28.8746 1.12537 30 2.50012 30H27.4999C28.8746 30 30 28.8746 30 27.4999V2.50012ZM13.0922 4.59373C12.6985 4.8328 12.7031 5.4703 13.1016 5.71873C13.2469 5.8078 13.3313 5.81248 14.9813 5.81248C16.6125 5.81248 16.7203 5.8078 16.8609 5.71873C17.2453 5.48905 17.2594 4.88905 16.8938 4.59842C16.7719 4.50467 16.7203 4.49998 15.0047 4.49998C13.3406 4.49998 13.2328 4.50467 13.0922 4.59373ZM13.8141 6.58592C13.1625 6.67498 12.7125 6.7828 12.0938 6.99373C10.711 7.46717 9.58129 8.17498 8.53129 9.22967C6.99379 10.7765 6.03285 12.8015 5.80785 14.9953C5.73754 15.6562 5.77973 16.9687 5.88285 17.5547C6.07035 18.6094 6.40316 19.5937 6.87191 20.4797C7.33129 21.3515 7.49066 21.5156 7.86098 21.5156C8.22191 21.5156 8.50316 21.2109 8.49379 20.8265C8.49379 20.6765 8.44691 20.55 8.30629 20.3297C7.70629 19.3828 7.31254 18.2765 7.14379 17.0765C7.04066 16.3359 7.07348 15.1406 7.21879 14.4187C7.81879 11.3906 10.0125 8.96248 12.8719 8.15623C13.7063 7.92186 14.2547 7.86092 15.2344 7.88905C16.5094 7.92655 17.2547 8.10936 18.3985 8.67655C19.2329 9.08436 19.8094 9.49686 20.461 10.1484C21.5016 11.1844 22.1766 12.314 22.5704 13.6875C22.9875 15.1406 22.9829 16.8609 22.561 18.3047C21.7735 21.0094 19.6407 23.114 16.9688 23.8359C16.0407 24.0844 14.9297 24.1547 13.9688 24.0281C12.8344 23.8734 11.8782 23.5265 10.8141 22.8797C10.3266 22.5844 10.2375 22.5609 9.97035 22.6781C9.71254 22.7906 9.60004 22.95 9.5766 23.2406C9.54379 23.625 9.73598 23.8265 10.5844 24.2953C12.4688 25.3453 14.686 25.6922 16.7813 25.2609C20.6719 24.464 23.6157 21.2156 24.1407 17.1328C24.2157 16.5609 24.2016 15.2297 24.1172 14.6437C23.925 13.3406 23.4844 12.089 22.8375 11.0156C21.3375 8.53123 18.8016 6.89061 15.961 6.56248C15.3938 6.50155 14.3766 6.51092 13.8141 6.58592ZM21.5907 7.27967C21.6235 7.09686 21.811 6.85311 21.9563 6.79686C22.1251 6.72655 22.4251 6.7453 22.5704 6.83436C22.711 6.91874 24.0798 8.32967 24.1547 8.4703C24.2251 8.58748 24.2063 8.92498 24.1219 9.08436C23.9626 9.39373 23.5266 9.51561 23.2266 9.33748C23.1469 9.28592 22.7673 8.9203 22.3829 8.51248C21.6469 7.74373 21.5344 7.5703 21.5907 7.27967ZM14.7188 9.7406C14.6297 9.78279 14.5078 9.8906 14.4469 9.97966L14.3438 10.1437L14.3531 13.3219L14.3672 16.5L14.5359 16.6687C14.7422 16.875 15.0375 16.9312 15.2672 16.8094C15.4641 16.7109 17.7234 13.9312 17.8031 13.6922C17.9391 13.2844 17.6391 12.8437 17.2219 12.8437C17.1047 12.8437 16.95 12.8719 16.8797 12.9094C16.8094 12.9469 16.5094 13.275 16.2141 13.6406L15.6797 14.3062L15.6562 12.225C15.6328 10.2562 15.6281 10.139 15.5391 9.98904C15.4359 9.81091 15.1828 9.65623 15 9.65623C14.9344 9.65623 14.8078 9.69373 14.7188 9.7406Z" fill="#0074E4"/>
</svg>
