<svg width="30" height="30" viewBox="0 0 30 30" fill="none" xmlns="http://www.w3.org/2000/svg">
    <path fill-rule="evenodd" clip-rule="evenodd" d="M30 2.50012C30 1.12537 28.8746 0 27.4999 0H2.50012C1.12537 0 0 1.12537 0 2.50012V27.5002C0 28.8746 1.12537 30 2.50012 30H27.4999C28.8746 30 30 28.8746 30 27.4999V2.50012ZM11.1827 4.45895C11.7443 4.28828 12.7022 4.08458 13.2363 4.02952C13.6767 3.97997 15.5045 3.99649 15.934 4.05154C17.2718 4.21671 18.6316 4.63513 19.7878 5.23522C20.2778 5.48848 22.2157 6.89788 22.6396 7.30529C23.2177 7.86685 24.4675 9.52951 24.4675 9.73321C24.4675 9.77175 24.1041 9.96445 23.6692 10.1681L22.8709 10.5315L22.6672 10.2232C22.0836 9.29828 21.0486 8.2192 20.1181 7.55854C18.9785 6.74924 17.5305 6.15464 16.1266 5.91791C15.499 5.8078 15.2788 5.79678 14.3098 5.82431C13.4785 5.84633 13.0766 5.87937 12.6582 5.97296C10.8579 6.35835 9.24477 7.20069 7.93997 8.44493C6.43697 9.87636 5.49003 11.5886 5.07711 13.6366C4.967 14.1706 4.95049 14.4239 4.95049 15.4424C4.95049 16.7692 5.03857 17.3693 5.38542 18.4319C6.32686 21.3113 8.6722 23.6676 11.5296 24.6036C12.6747 24.9834 13.1151 25.044 14.5576 25.044C15.7027 25.0495 15.9174 25.033 16.4239 24.9229C17.6186 24.6586 18.8078 24.1851 19.6722 23.6236C19.8869 23.4859 20.0796 23.3703 20.0906 23.3703C20.1071 23.3703 20.1181 23.8383 20.1181 24.4164V25.4624L19.5841 25.7322C18.505 26.2662 17.3048 26.6351 16.0606 26.8113C15.1412 26.9434 13.3188 26.9049 12.438 26.7342C10.1036 26.2937 8.02255 25.1982 6.34888 23.53C3.965 21.1516 2.72627 17.7217 3.05109 14.3909C3.50805 9.70018 6.68472 5.81881 11.1827 4.45895ZM14.5025 15.58V13.3393V11.0931H15.466H16.4294V13.5816L16.4239 16.0755L14.8384 17.8098C13.963 18.7622 13.2252 19.544 13.1922 19.544C13.1096 19.544 11.9039 18.4704 11.9259 18.4154C11.937 18.3934 12.5205 17.7437 13.2252 16.9784L14.5025 15.58ZM22.9369 15.1231L21.6046 17.3418L22.5405 17.3583L23.4765 17.3693V21.1957V25.022H24.3023H25.1281V21.1957V17.3693L26.0641 17.3583L27 17.3418L25.6787 15.1396C24.952 13.9284 24.3353 12.9319 24.3133 12.9209C24.2858 12.9154 23.6637 13.9064 22.9369 15.1231Z" fill="#0074E4"/>
</svg>
