<svg width="30" height="30" viewBox="0 0 30 30" fill="none" xmlns="http://www.w3.org/2000/svg">
    <path fill-rule="evenodd" clip-rule="evenodd" d="M6.25012 19.9999C6.25012 17.9321 7.932 16.2514 10.0001 16.2514L13.7501 16.2499V19.9999C13.7501 22.068 12.0679 23.7499 10.0001 23.7499C7.932 23.7499 6.25012 22.068 6.25012 19.9999ZM19.9999 6.25012C22.068 6.25012 23.7499 7.932 23.7499 10.0001C23.7499 12.0679 22.068 13.7501 19.9999 13.7501H16.2499V10.0001C16.2499 7.93237 17.9321 6.25012 19.9999 6.25012ZM27.4999 0C28.8746 0 30 1.12537 30 2.50012V27.4999C30 28.8746 28.8746 30 27.4999 30H2.50012C1.12537 30 0 28.8746 0 27.5002V2.50012C0 1.12537 1.12537 0 2.50012 0H27.4999ZM19.9999 16.2499C23.4457 16.2499 26.25 13.446 26.25 10.0001C26.25 6.55387 23.4457 3.75 19.9999 3.75C16.554 3.75 13.7501 6.55387 13.7501 10.0001V13.7501H10.0001C6.55425 13.7501 3.75 16.554 3.75 19.9999C3.75 23.4457 6.55425 26.25 10.0001 26.25C13.446 26.25 16.2499 23.4457 16.2499 19.9999V16.2499H19.9999Z" fill="#0074E4"/>
</svg>
