<svg width="30" height="30" viewBox="0 0 30 30" fill="none" xmlns="http://www.w3.org/2000/svg">
    <path fill-rule="evenodd" clip-rule="evenodd" d="M30 2.50012C30 1.12537 28.8746 0 27.4999 0H2.50012C1.12537 0 0 1.12537 0 2.50012V27.5002C0 28.8746 1.12537 30 2.50012 30H27.4999C28.8746 30 30 28.8746 30 27.4999V2.50012ZM15.1143 15.9704C16.1707 15.9704 17.025 15.116 17.025 14.0596V7.81416V3.92166V3.91075C17.025 2.85437 16.1707 1.99998 15.1143 1.99998C14.0579 1.99998 13.2035 2.85437 13.2035 3.91075V3.92166V7.81416V14.0623C13.2035 15.116 14.0579 15.9704 15.1143 15.9704ZM6.54856 24.4514C7.65953 25.5624 8.95612 26.4359 10.3974 27.0473C11.8932 27.6806 13.4791 28 15.1142 28C16.7493 28 18.3352 27.6806 19.8311 27.0473C21.2751 26.4359 22.5689 25.5652 23.6799 24.4514C24.7909 23.3405 25.6644 22.0439 26.2758 20.6026C26.9091 19.1067 27.2285 17.5208 27.2285 15.8857C27.2285 14.2507 26.9091 12.6647 26.2758 11.1689C25.6644 9.72492 24.7936 8.43106 23.6799 7.32009C22.5689 6.20912 21.2723 5.33563 19.8311 4.72419C19.6264 4.63684 19.4189 4.55768 19.2087 4.48125V8.67127C19.8475 9.03432 20.4425 9.48744 20.9775 10.0225C22.5444 11.5893 23.4069 13.672 23.4069 15.8857C23.4069 18.0995 22.5444 20.1822 20.9775 21.7491C19.4107 23.3159 17.328 24.1785 15.1142 24.1785C12.9005 24.1785 10.8177 23.3159 9.25092 21.7491C7.68409 20.1822 6.82152 18.0995 6.82152 15.8857C6.82152 13.672 7.68409 11.5893 9.25092 10.0225C9.78593 9.48744 10.381 9.03432 11.0197 8.67127V4.48125C10.8123 4.55768 10.6048 4.63684 10.3974 4.72419C8.95339 5.33563 7.65953 6.20639 6.54856 7.32009C5.43759 8.43106 4.56409 9.72765 3.95265 11.1689C3.31937 12.6648 3 14.2507 3 15.8857C3 17.5208 3.31937 19.1067 3.95265 20.6026C4.56409 22.0439 5.43759 23.3405 6.54856 24.4514Z" fill="#0074E4"/>
</svg>