<svg width="30" height="30" viewBox="0 0 30 30" fill="none" xmlns="http://www.w3.org/2000/svg">
    <path fill-rule="evenodd" clip-rule="evenodd" d="M30 2.50012C30 1.12537 28.8746 0 27.4999 0H2.50012C1.12537 0 0 1.12537 0 2.50012V27.5002C0 28.8746 1.12537 30 2.50012 30H27.4999C28.8746 30 30 28.8746 30 27.4999V2.50012ZM3.23729 12.584C4.08106 9.65141 6.35513 7.61401 9.41122 7.05836C10.0904 6.93488 11.7367 7.0172 12.4673 7.21271C13.2288 7.40821 14.4327 7.97416 15.0501 8.40633L15.5028 8.73561L15.9453 8.42691C16.6141 7.94329 17.746 7.4185 18.5384 7.20242C19.6085 6.92459 21.3784 6.94517 22.4485 7.24358C25.0827 7.99474 27.0996 10.0527 27.8198 12.7178C28.0668 13.6233 28.0565 15.599 27.8096 16.5148C27.4185 17.9451 26.6468 19.1799 25.4635 20.2809C23.2306 22.3491 19.7011 22.7916 16.9331 21.351L16.1511 20.9394L15.8218 21.1246C15.5131 21.2996 15.4926 21.2996 15.1736 21.1246L14.8546 20.9394L14.1343 21.3202C13.0333 21.8964 12.313 22.0919 10.965 22.1536C9.12311 22.2462 7.73397 21.8655 6.2831 20.8674C5.6657 20.4558 4.72932 19.5297 4.30744 18.9226C3.91642 18.3772 3.38135 17.2145 3.19613 16.5148C2.9183 15.5064 2.93888 13.613 3.23729 12.584ZM26.369 13.0368C25.8339 10.9685 24.0435 9.16779 22.0266 8.67387C20.8947 8.38575 19.5673 8.40633 18.6104 8.71503C17.9415 8.93112 16.9023 9.51764 16.3466 10.0013C15.6366 10.629 15.3691 10.629 14.6899 10.0218C14.0725 9.4559 12.9715 8.86938 12.1483 8.65329C11.3972 8.45778 9.76108 8.45778 9.05108 8.643C6.92107 9.20894 5.20266 10.9171 4.63671 13.0265C4.41034 13.9011 4.41034 15.3623 4.63671 16.1649C5.48048 19.0564 8.04267 20.8983 10.9753 20.713C11.8911 20.6513 12.6217 20.4455 13.5272 19.9825C14.0005 19.7355 14.052 19.6841 13.9594 19.5091C13.8976 19.3959 13.8359 19.3033 13.8153 19.3033C13.805 19.3033 13.5169 19.4371 13.1773 19.612C10.8827 20.7542 8.20731 20.2912 6.46831 18.439C4.38976 16.2164 4.43092 12.8207 6.55063 10.6495C8.75267 8.41662 12.2821 8.36517 14.4841 10.5569C14.8546 10.9274 15.2353 11.339 15.3279 11.483L15.5028 11.7403L15.6778 11.483C16.0791 10.9171 16.9126 10.1145 17.4476 9.79547C20.3288 8.04619 24.0229 9.12663 25.484 12.1416C26.5439 14.323 26.1632 16.7103 24.4756 18.4904C22.7778 20.3015 20.0613 20.7542 17.8386 19.612C17.5197 19.4371 17.2315 19.3033 17.2007 19.3033C17.1801 19.3033 17.1081 19.3959 17.0463 19.5091C16.9537 19.6841 17.0052 19.7458 17.5711 20.0236C17.921 20.1986 18.5486 20.4352 18.9808 20.5484C21.0491 21.0732 23.2203 20.4558 24.7637 18.902C25.5664 18.0891 25.8956 17.5438 26.2661 16.4633C26.5953 15.4652 26.6468 14.0658 26.369 13.0368ZM14.7517 14.2922C14.5665 12.5429 13.4757 11.1743 11.8602 10.629C11.2531 10.4232 9.97717 10.4129 9.35977 10.6084C8.28963 10.9376 7.31209 11.7917 6.81817 12.8207C6.39629 13.7056 6.31397 15.0227 6.63295 15.9282C7.04455 17.1013 7.95006 18.0377 9.09224 18.4904C9.54499 18.6654 9.90514 18.7271 10.6151 18.7271C11.4486 18.7374 11.6133 18.7065 12.2409 18.4081C12.9407 18.0685 13.0333 17.9759 12.7966 17.7804C12.704 17.6981 12.5188 17.7393 12.1278 17.9348C10.893 18.5419 9.19514 18.2949 8.15586 17.338C6.1802 15.5269 6.59179 12.4914 8.97905 11.3184C9.67876 10.9685 9.83311 10.9274 10.5431 10.9376C12.0454 10.9479 13.2288 11.6785 13.877 13.0059C14.1857 13.6336 14.2166 13.7674 14.2063 14.6214C14.2063 15.3417 14.1549 15.6607 13.9799 16.0414L13.7536 16.5456L14.6076 17.8216C15.0707 18.5213 15.472 19.0872 15.5028 19.0872C15.5337 19.0872 15.935 18.5213 16.3981 17.8113L17.2418 16.5353L17.0257 16.0414C16.8405 15.6504 16.7994 15.352 16.7891 14.6214C16.7891 13.8085 16.8302 13.613 17.0875 13.0574C17.7666 11.5756 19.3821 10.7113 20.9771 10.9685C22.5926 11.2258 23.745 12.3679 24.0537 14.0143C24.3419 15.5784 23.4569 17.2351 21.9546 17.9245C21.399 18.1817 21.1932 18.2229 20.3905 18.2229C19.5879 18.2229 19.3821 18.1817 18.8985 17.9451C18.4869 17.7393 18.3017 17.6981 18.2091 17.7804C17.9724 17.9656 18.0547 18.0685 18.703 18.3772C20.7301 19.3342 23.1894 18.439 24.2081 16.3707C24.4859 15.8048 24.5065 15.6607 24.5065 14.6214C24.5065 13.5616 24.4859 13.4484 24.1875 12.8207C23.7759 11.9769 23.0659 11.2669 22.2119 10.845C21.3578 10.4232 20.0716 10.3203 19.1969 10.6084C17.4476 11.1846 16.2231 12.8207 16.2231 14.57C16.2231 14.961 15.8939 15.2903 15.5028 15.2903C15.0398 15.2903 14.8237 15.0022 14.7517 14.2922ZM12.1278 16.1135C13.1362 15.0742 12.9818 13.541 11.7882 12.7487C11.4692 12.5326 11.212 12.4606 10.7283 12.44C9.76108 12.3885 9.04079 12.8104 8.58803 13.685C8.14557 14.5597 8.52629 15.918 9.35977 16.4324C10.327 17.0293 11.3457 16.9058 12.1278 16.1135ZM22.5617 14.0246C22.4794 13.5821 21.8723 12.8721 21.3578 12.6149C20.9359 12.3885 20.0613 12.3474 19.6188 12.5223C18.1062 13.1294 17.746 15.0948 18.9397 16.1958C19.6908 16.8852 20.6272 16.9984 21.5224 16.4942C22.3353 16.0414 22.7572 15.0433 22.5617 14.0246ZM9.86398 13.3352C9.34948 13.6542 9.10253 14.1172 9.15398 14.6935C9.20542 15.3314 9.45238 15.671 10.008 15.918C10.5843 16.1752 11.0473 16.1032 11.5412 15.6607C12.3233 14.9816 12.1689 13.7365 11.2531 13.294C10.7695 13.0677 10.2756 13.0882 9.86398 13.3352ZM20.0921 16.0106C18.7956 15.7225 18.5589 13.9011 19.7423 13.294C20.6581 12.831 21.7591 13.4175 21.8517 14.4362C21.9546 15.5064 21.1211 16.2472 20.0921 16.0106Z" fill="#0074E4"/>
</svg>