<svg width="30" height="30" viewBox="0 0 30 30" fill="none" xmlns="http://www.w3.org/2000/svg">
    <path fill-rule="evenodd" clip-rule="evenodd" d="M30 2.50014C30 1.12539 28.8746 1.52588e-05 27.4999 1.52588e-05H2.50012C1.12537 1.52588e-05 0 1.12539 0 2.50014V27.5003C0 28.8746 1.12537 30 2.50012 30H27.4999C28.8746 30 30 28.8746 30 27.4999V2.50014ZM6 14.5527L14.0234 2H15.5703H16.123L24.0039 14.5488L15.0742 19.0137L6 14.5527ZM14.0703 9.98829V5.63672L10.1563 11.7637L14.0703 9.98829ZM19.8887 11.7578L16.0703 5.67774V10.0039L19.8887 11.7578ZM14.0703 16.291V12.1836L9.72656 14.1543L14.0703 16.291ZM20.3164 14.1563L16.0703 12.207V16.2793L20.3164 14.1563ZM6.07031 19.0313V16.5117L15.0703 21.125L24.0703 16.5117V19.0313L16.1426 27.875H15.0703H13.998L6.07031 19.0313ZM14.0703 22.8613L10.5918 21.0781L14.0703 24.957V22.8613ZM16.0703 24.957L19.5488 21.0781L16.0703 22.8613V24.957Z" fill="#0074E4"/>
</svg>