<svg width="30" height="30" viewBox="0 0 30 30" fill="none" xmlns="http://www.w3.org/2000/svg">
    <path fill-rule="evenodd" clip-rule="evenodd" d="M30 2.50012C30 1.12537 28.8746 0 27.4999 0H2.50012C1.12537 0 0 1.12537 0 2.50012V27.5002C0 28.8746 1.12537 30 2.50012 30H27.4999C28.8746 30 30 28.8746 30 27.4999V2.50012ZM5.46406 6.46002C6.40979 5.71081 7.50904 5.20417 8.54074 5.0353C8.91534 4.97388 9.58779 4.99538 9.91941 5.07828C10.4076 5.19803 10.684 5.37919 10.3738 5.36998C10.1067 5.36384 9.48646 5.42218 9.18862 5.48052C8.51003 5.6187 7.68713 5.95031 7.09144 6.32492C5.63908 7.23687 4.55211 8.63703 4.19593 10.0526C4.12224 10.3412 4.11302 10.4364 4.11302 10.9C4.11302 11.508 4.14373 11.6462 4.37402 12.1282C4.8346 13.0862 5.96149 13.7925 7.4292 14.035C7.899 14.1149 9.11186 14.1149 9.63999 14.0381C10.3984 13.9245 11.1968 13.728 11.8446 13.4946L12.1087 13.3964L12.2868 13.1169C12.7228 12.423 13.3492 11.6953 13.908 11.2286C15.127 10.2091 16.5763 9.73014 18.2375 9.78848C19.7513 9.84375 21.0655 10.2429 22.2906 11.0198C22.6683 11.2593 22.7635 11.3023 22.8433 11.2716C22.9323 11.2378 22.8894 11.1948 22.6437 11.0658C22.2169 10.8447 21.9283 10.464 21.7379 9.87139C21.5813 9.39238 21.6304 8.88268 21.8761 8.39753C22.1248 7.90318 22.6713 7.3382 23.3376 6.89297L23.5587 6.73944L23.8197 7.01886C24.1022 7.3167 24.4215 7.76807 24.5812 8.09662L24.6795 8.29927L24.8975 8.11504C25.0142 8.01064 25.2015 7.8694 25.312 7.79878C25.7511 7.51629 26.5126 7.18774 26.5771 7.25222C26.5955 7.27064 26.663 7.43645 26.7275 7.62683C26.9762 8.32691 27.0591 9.0362 26.9578 9.62882C26.8411 10.332 26.5556 10.8969 26.0581 11.4097L25.8923 11.5817L26.0489 11.7291C26.3038 11.9655 26.5924 12.6042 26.7306 13.2336C26.7521 13.335 26.7705 13.5959 26.7705 13.817V14.2162L26.6231 14.5847C26.4542 15.0023 26.4327 15.1803 26.5279 15.4536C26.574 15.5979 26.5771 15.6409 26.5464 15.7852C26.5034 15.9664 26.3713 16.1322 26.2577 16.1384C26.2424 16.1396 26.2244 16.1409 26.2064 16.1422C26.1812 16.144 26.1559 16.1458 26.138 16.1476C26.1103 16.1506 26.0551 16.1813 26.0152 16.2182C25.7971 16.4208 25.5331 16.3963 25.0848 16.1199C24.8238 15.9603 24.5567 16.0032 24.4676 16.2151C24.3509 16.4945 24.5259 16.734 25.1738 17.1854C25.834 17.6491 25.9875 17.8271 25.9906 18.1311C25.9906 18.3092 25.9015 18.4597 25.7572 18.518C25.53 18.6132 25.3366 18.4904 24.9773 18.0237C24.4922 17.4003 24.3356 17.2867 23.9732 17.3082C23.8504 17.3174 23.7399 17.3328 23.7276 17.342C23.7 17.3696 23.8781 17.6276 24.2066 18.039C24.5536 18.472 24.6672 18.6654 24.6918 18.8619C24.7132 19.0615 24.6611 19.212 24.5259 19.3317C24.4277 19.4146 24.4001 19.4269 24.2803 19.4115C24.0469 19.387 23.918 19.2181 23.703 18.6531C23.5127 18.1526 23.353 17.907 23.1596 17.8057C23.1104 17.778 22.9845 17.7442 22.8801 17.7289C22.4533 17.6613 22.0327 17.4771 21.6243 17.1731L21.3848 16.995L20.8567 17.1823C19.9908 17.4832 19.8772 17.4986 18.1914 17.5047C16.822 17.514 16.7544 17.517 16.5886 17.5784C15.9192 17.8271 14.9766 18.8834 14.4024 20.0287C14.3256 20.1853 14.2611 20.3388 14.2611 20.3726C14.2611 20.5691 14.5958 20.9898 15.3328 21.7237C16.475 22.8628 17.9212 24.0204 18.5814 24.3213C19.1372 24.5762 19.7758 24.7174 21.0194 24.8556C22.1279 24.9815 22.3766 25.046 22.4625 25.2363C22.5455 25.4175 22.3397 25.5833 21.9068 25.6724C21.5813 25.743 20.4299 25.7491 19.7666 25.6877C19.4012 25.6539 19.2938 25.6539 19.1065 25.6908C18.3235 25.8351 15.8363 25.6017 15.3665 25.3407C15.0104 25.1412 14.4085 24.6529 13.3124 23.6734C11.9736 22.479 11.4485 22.0184 11.0586 21.6991C10.6563 21.3675 10.4997 21.1802 10.466 20.9959C10.4291 20.7933 10.4721 20.52 10.5734 20.3112C10.7515 19.955 10.9572 19.7002 11.7955 18.8097C12.2684 18.3062 12.4894 18.0267 12.6338 17.7565C12.9255 17.213 12.947 16.7617 12.7075 16.2735C12.5877 16.0309 12.3267 15.7085 12.1578 15.5918C11.992 15.4782 11.6297 15.3154 11.4209 15.2571C11.1169 15.1742 10.5059 15.165 10.0699 15.2418C9.86721 15.2755 9.55709 15.3185 9.37899 15.34C8.9614 15.3861 7.85601 15.3861 7.44456 15.34C5.82331 15.1558 4.58896 14.5386 3.85203 13.553C3.39452 12.9389 3.10589 12.1681 3.01991 11.3145C2.89709 10.114 3.34539 8.80591 4.2819 7.6299C4.52141 7.32899 5.15087 6.70567 5.46406 6.46002ZM25.3949 14.6798C25.5331 14.5417 25.5392 14.3881 25.4103 14.2592C25.3396 14.1886 25.2936 14.1701 25.1923 14.1701C25.0203 14.1701 24.8852 14.2991 24.8852 14.4618C24.8852 14.6154 25.0479 14.7842 25.1923 14.7842C25.2629 14.7842 25.3212 14.7566 25.3949 14.6798ZM13.3062 19.7125C13.647 19.2457 13.8343 18.9233 13.9541 18.5948C14.0063 18.4535 14.0462 18.3123 14.0401 18.2816C14.0309 18.2294 14.0155 18.2325 13.865 18.3154C13.2847 18.6347 12.3973 19.5252 11.903 20.2897C11.7034 20.5968 11.6942 20.6244 11.7709 20.781C12.0258 21.3061 13.5672 22.8014 14.8384 23.7594C15.4894 24.2476 15.9407 24.4749 16.5978 24.6407C16.9632 24.7359 17.3931 24.8188 17.39 24.7973C17.39 24.7881 17.2703 24.6806 17.126 24.5639C16.9786 24.4442 16.4443 23.9836 15.9377 23.5383C14.691 22.4452 14.0462 21.8925 13.5795 21.5149C13.1987 21.2109 12.9807 20.9714 12.9132 20.7933C12.8948 20.7442 12.8794 20.6336 12.8794 20.5446C12.8794 20.3358 12.9592 20.1822 13.3062 19.7125Z" fill="#0074E4"/>
</svg>
