<svg width="30" height="30" viewBox="0 0 30 30" fill="none" xmlns="http://www.w3.org/2000/svg">
    <path fill-rule="evenodd" clip-rule="evenodd" d="M30 2.50012C30 1.12537 28.8746 0 27.4999 0H2.50012C1.12537 0 0 1.12537 0 2.50012V27.5002C0 28.8746 1.12537 30 2.50012 30H27.4999C28.8746 30 30 28.8746 30 27.4999V2.50012ZM8.34236 2.92634C8.23649 2.65285 8.28943 2.43229 8.50998 2.22056C8.62467 2.09704 8.80994 2 8.91581 2C9.21577 2 10.7067 2.74107 11.2626 3.17337C12.4536 4.08207 13.1946 5.16722 13.6622 6.64937C13.7857 7.04638 13.9181 7.3728 13.9622 7.3728C13.9975 7.38163 14.4915 7.38163 15.0738 7.38163H16.1237L16.2648 6.79935C16.7589 4.84079 18.3998 3.02339 20.3937 2.22938C21.0995 1.95589 21.17 1.94706 21.47 2.18527C21.9376 2.54698 21.7082 3.12926 21.0024 3.36746C20.4995 3.52626 19.7055 3.99385 19.1674 4.43496C18.4175 5.05253 17.5617 6.53468 17.4117 7.46985L17.3588 7.81392L17.8881 8.07859C18.5233 8.3962 19.3703 9.16374 19.7497 9.75484C20.2172 10.4783 20.3849 11.1135 20.3584 12.0134L20.3407 12.8074L20.9054 13.0103C23.2257 13.8396 25.4312 15.3747 26.3664 16.8215C27.3545 18.3478 27.1869 19.7947 25.8635 21.1268C24.7166 22.2737 23.3139 22.7501 21.6994 22.5296L21.2053 22.459L21.0554 22.9707C20.4201 25.0528 18.6998 26.6761 16.5736 27.1966L15.9913 27.3378L15.6031 28.1494C15.2679 28.8464 15.1885 28.9523 14.9944 28.9523C14.8003 28.9523 14.7209 28.8464 14.3857 28.1406L13.9975 27.3378L13.3711 27.1878C11.3508 26.7026 9.5422 24.991 8.9511 23.0148L8.80112 22.5119H7.59246C6.55142 22.5119 6.33086 22.4855 5.89857 22.309C4.82224 21.8767 3.72827 20.9151 3.28716 20.0152C2.97837 19.3712 2.9078 18.4625 3.12835 17.8008C3.47243 16.7421 4.47817 15.6041 5.90739 14.6159C6.75434 14.0337 8.35118 13.2397 9.18048 12.9838L9.67453 12.825L9.63042 12.128C9.55984 10.84 10.0186 9.76366 11.0508 8.81967C11.3331 8.57264 11.8007 8.22857 12.0919 8.06977L12.63 7.77863L12.5683 7.43456C12.4889 6.88758 12.0566 5.94358 11.6066 5.3172C11.0508 4.54083 10.3627 3.99385 9.29517 3.49097C8.80112 3.26159 8.37765 3.00574 8.34236 2.92634ZM12.8947 16.7333C13.1505 15.904 13.1946 14.1043 12.9653 13.866C12.7624 13.672 11.8801 13.6278 11.0861 13.7778C8.92463 14.1837 6.49849 15.4717 5.17514 16.9009C4.00177 18.1802 3.94001 19.0536 4.95458 20.1299C6.19853 21.4621 7.68951 21.665 9.5422 20.7475C11.1743 19.9358 12.3301 18.5595 12.8947 16.7333ZM24.7431 16.8392C23.5433 15.5599 21.6288 14.4836 19.582 13.9278C18.8321 13.7249 17.8352 13.6278 17.3764 13.7161C16.9353 13.8043 16.8118 14.2101 16.8824 15.3217C16.9883 17.2097 17.9058 18.9654 19.3526 20.0505C21.5229 21.6915 23.5433 21.7268 25.0254 20.1476C25.5195 19.6182 25.7577 19.1418 25.7577 18.6919C25.7577 18.2066 25.3783 17.5185 24.7431 16.8392ZM15.9119 17.2097C15.8325 16.9274 15.7178 16.6627 15.6649 16.6274C15.612 16.5922 15.312 16.5569 14.9944 16.5569C14.6768 16.5569 14.3768 16.5922 14.3239 16.6274C14.2622 16.6627 14.1739 16.8656 14.1122 17.0862C13.8651 18.0126 13.3182 19.0624 12.683 19.8388L12.3477 20.2446L12.8065 20.3505C13.6534 20.5446 15.4885 20.5622 16.5119 20.3946C17.0059 20.3152 17.447 20.227 17.4823 20.2093C17.5176 20.1828 17.3323 19.8741 17.0677 19.5123C16.5295 18.7625 16.1325 17.9684 15.9119 17.2097ZM18.5763 24.6293C18.9203 24.2941 19.2909 23.8441 19.3968 23.6324C19.5026 23.4206 19.582 23.2177 19.5644 23.1824C19.5467 23.1472 19.2556 23.2089 18.9115 23.3148C16.4766 24.0823 13.6093 24.1353 11.139 23.4383C10.7861 23.3412 10.4774 23.2618 10.4509 23.2618C10.2921 23.2618 10.8832 24.1088 11.4125 24.6293C12.4536 25.6615 13.5034 26.085 14.9944 26.085C16.4854 26.085 17.5352 25.6615 18.5763 24.6293Z" fill="#0074E4"/>
</svg>
