<svg width="30" height="30" viewBox="0 0 30 30" fill="none" xmlns="http://www.w3.org/2000/svg">
    <path fill-rule="evenodd" clip-rule="evenodd" d="M30 2.50012C30 1.12537 28.8746 0 27.4999 0H2.50012C1.12537 0 0 1.12537 0 2.50012V27.5002C0 28.8746 1.12537 30 2.50012 30H27.4999C28.8746 30 30 28.8746 30 27.4999V2.50012ZM28 15C28 22.1797 22.1797 28 15 28C7.8203 28 2 22.1797 2 15C2 7.8203 7.8203 2 15 2C22.1797 2 28 7.8203 28 15ZM19.432 23.9591C23.0665 22.192 25.8895 17.8617 24.6085 15.8582C24.1994 15.0881 24.1509 14.5762 24.5693 13.9139C26.5565 10.7548 19.151 3.34004 15.8778 5.26297C15.254 5.66822 14.7364 5.66488 14.0662 5.25127C10.8698 3.28658 3.36923 10.6051 5.3152 13.8407C5.7253 14.4573 5.67024 14.9685 5.25122 15.7332C3.94441 17.72 6.7109 22.1376 10.4259 23.9521C12.3867 24.8857 12.9039 24.9402 13.7875 24.3831C14.6706 23.8772 15.0847 23.8799 15.9095 24.3968C16.0172 24.4643 16.1127 24.5263 16.1992 24.5824C16.4958 24.7747 16.6856 24.8978 16.8912 24.9361C17.2567 25.0043 17.6721 24.8045 18.8261 24.2495C19.0086 24.1617 19.2097 24.065 19.432 23.9591ZM15.9548 17.3883C14.408 16.4574 13.1741 15.1704 12.2533 13.4762C11.4859 12.09 10.9762 10.8589 11.0804 10.7572C11.1846 10.6556 12.4752 11.1755 13.8674 12.003C15.9307 13.0907 16.8564 14.0175 17.9812 16.1735C18.7998 17.6624 19.2059 18.8929 18.8957 18.8397C18.5334 18.8374 17.2437 18.164 15.9548 17.3883Z" fill="#0074E4"/>
</svg>
