<svg width="30" height="30" viewBox="0 0 30 30" fill="none" xmlns="http://www.w3.org/2000/svg">
    <path fill-rule="evenodd" clip-rule="evenodd" d="M30 2.50014C30 1.12539 28.8746 1.52588e-05 27.4999 1.52588e-05H2.50012C1.12537 1.52588e-05 0 1.12539 0 2.50014V27.5003C0 28.8746 1.12537 30 2.50012 30H27.4999C28.8746 30 30 28.8746 30 27.4999V2.50014ZM8.75 24.5C7.75544 24.5 6.80161 24.1049 6.09835 23.4017C5.39509 22.6984 5 21.7446 5 20.75V11.607C5 10.9156 5.27467 10.2525 5.76357 9.76357C6.25248 9.27467 6.91558 9 7.607 9H9V7.75C9.00106 7.02098 9.29113 6.32212 9.80663 5.80662C10.3221 5.29113 11.021 5.00106 11.75 5H21.75C22.4791 5.00079 23.1781 5.29078 23.6937 5.80633C24.2092 6.32189 24.4992 7.0209 24.5 7.75V17.75C24.4995 18.4792 24.2096 19.1783 23.694 19.694C23.1783 20.2096 22.4792 20.4995 21.75 20.5H20.5V21.893C20.5 22.2354 20.4325 22.5745 20.3015 22.8909C20.1704 23.2072 19.9783 23.4947 19.7361 23.7368C19.4939 23.9789 19.2064 24.1709 18.89 24.3018C18.5736 24.4328 18.2344 24.5001 17.892 24.5H8.75ZM6.5 11.607V20.75C6.5 21.3467 6.73705 21.919 7.15901 22.341C7.58097 22.7629 8.15326 23 8.75 23H17.892C18.1857 23 18.4674 22.8834 18.6751 22.6758C18.8829 22.4683 18.9997 22.1867 19 21.893V20.5H11.75C11.0209 20.4992 10.3219 20.2092 9.80633 19.6937C9.29078 19.1781 9.00079 18.4791 9 17.75V10.5H7.607C7.31341 10.5 7.03184 10.6166 6.82423 10.8242C6.61663 11.0318 6.5 11.3134 6.5 11.607ZM10.5 7.75V17.75C10.5005 18.0814 10.6324 18.399 10.8667 18.6333C11.101 18.8676 11.4186 18.9995 11.75 19H21.75C22.0814 18.9997 22.3992 18.868 22.6336 18.6336C22.868 18.3992 22.9997 18.0814 23 17.75V7.75C22.9997 7.41856 22.868 7.10077 22.6336 6.86641C22.3992 6.63205 22.0814 6.50026 21.75 6.5H11.75C11.4186 6.50053 11.101 6.63239 10.8667 6.8667C10.6324 7.10101 10.5005 7.41864 10.5 7.75ZM14.25 15.5C14.0511 15.5 13.8603 15.421 13.7197 15.2803C13.579 15.1397 13.5 14.9489 13.5 14.75C13.5 14.5511 13.579 14.3603 13.7197 14.2197C13.8603 14.079 14.0511 14 14.25 14H19.25C19.4489 14 19.6397 14.079 19.7803 14.2197C19.921 14.3603 20 14.5511 20 14.75C20 14.9489 19.921 15.1397 19.7803 15.2803C19.6397 15.421 19.4489 15.5 19.25 15.5H14.25ZM19.25 10H14.25C14.0511 10 13.8603 10.079 13.7197 10.2197C13.579 10.3603 13.5 10.5511 13.5 10.75C13.5 10.9489 13.579 11.1397 13.7197 11.2803C13.8603 11.421 14.0511 11.5 14.25 11.5H19.25C19.4489 11.5 19.6397 11.421 19.7803 11.2803C19.921 11.1397 20 10.9489 20 10.75C20 10.5511 19.921 10.3603 19.7803 10.2197C19.6397 10.079 19.4489 10 19.25 10Z" fill="#0074E4"/>
</svg>