<svg width="30" height="30" viewBox="0 0 30 30" fill="none" xmlns="http://www.w3.org/2000/svg">
    <path fill-rule="evenodd" clip-rule="evenodd" d="M30 2.50014C30 1.12539 28.8746 1.14441e-05 27.4999 1.14441e-05H2.50012C1.12537 1.14441e-05 0 1.12539 0 2.50014V27.5003C0 28.8746 1.12537 30 2.50012 30H27.4999C28.8746 30 30 28.8746 30 27.4999V2.50014ZM16.1486 2.3792C15.8472 2.39084 15.5771 2.40431 15.4404 2.41113C15.3836 2.41396 15.3498 2.41564 15.3464 2.41557C15.3066 2.42404 15.3914 4.11727 15.4283 4.1367C15.4513 4.14884 15.6308 4.14338 15.8317 4.11973C16.0301 4.10069 16.3845 4.08733 16.6174 4.09233C16.8573 4.09514 17.0511 4.07368 17.0589 4.03657C17.0947 3.89056 17.0197 2.3909 16.9782 2.36905C16.9552 2.3569 16.5824 2.36055 16.1486 2.3792ZM20.0689 3.93343L19.656 4.71669L19.8711 4.78887C19.9868 4.8263 20.2407 4.93659 20.4296 5.03616C20.6185 5.13574 20.853 5.28288 20.9539 5.3596L21.1304 5.49386L21.5433 4.71059L21.9561 3.92733L21.2189 3.53875L20.4818 3.15016L20.0689 3.93343ZM23.1592 7.2521C23.1854 7.22471 23.5045 7.01023 23.8707 6.77346C24.2345 6.5413 24.5553 6.35714 24.5737 6.36686C24.606 6.38386 25.429 7.65959 25.4643 7.74888C25.4776 7.77946 24.035 8.67342 23.9981 8.65399C23.9751 8.64185 23.8781 8.49066 23.7841 8.31158C23.6877 8.13711 23.4984 7.83717 23.3627 7.64787C23.2248 7.45154 23.133 7.2795 23.1592 7.2521ZM18.6352 6.03909C17.2976 5.61665 15.8953 5.60753 14.5842 6.01739C12.3562 6.70346 10.6422 8.51419 10.129 10.7165C9.91885 11.6066 9.84582 12.4041 9.77581 14.581C9.68752 17.2839 9.57202 18.1062 9.15291 19.1805L8.95805 19.6843L11.893 21.2313L14.8279 22.7784L15.1406 22.3191C15.8239 21.3133 16.4297 20.7672 18.6949 19.1057C20.3755 17.8721 20.6932 17.6156 21.2787 17.0411C22.7258 15.6137 23.3953 13.7293 23.1875 11.6886C23.0312 10.1756 22.3086 8.67601 21.2201 7.61357C20.5447 6.9514 19.4913 6.31373 18.6352 6.03909ZM19.8697 8.65629C21.2303 9.85037 21.8401 11.8321 21.3895 13.614C21.3051 13.964 21.197 14.225 20.9758 14.6559C20.4585 15.6373 20.0257 16.045 17.5568 17.8582C15.694 19.2254 14.9064 19.8818 14.4417 20.4729L14.3196 20.6264L12.6655 19.7545C11.2925 19.0308 11.0163 18.8734 11.0455 18.8181C11.1135 18.6891 11.3234 17.375 11.3716 16.7586C11.3977 16.4074 11.4491 15.3158 11.482 14.3264C11.5747 11.6375 11.6743 11.0129 12.1772 10.0475C12.4225 9.58215 12.5646 9.36853 12.8059 9.08948C14.1667 7.55773 16.3476 7.00578 18.2873 7.7044C18.7197 7.85579 19.4787 8.31474 19.8697 8.65629ZM10.5378 4.36726C10.55 4.34422 10.8667 4.13435 11.2445 3.89783C11.6153 3.66349 11.9293 3.46987 11.9339 3.47229C11.9846 3.49901 12.8395 4.91522 12.825 4.94286C12.8128 4.9659 12.6616 5.06284 12.4825 5.15685C12.3081 5.25328 12.0081 5.44255 11.8188 5.57827C11.6225 5.71617 11.4505 5.808 11.4231 5.78179C11.3271 5.69585 10.523 4.40654 10.5378 4.36726ZM25.6679 11.1827C25.2201 11.2057 24.8397 11.2348 24.8183 11.253C24.8016 11.2736 24.8 11.4553 24.819 11.6537C24.8403 11.8592 24.8536 12.2136 24.8486 12.4465C24.8434 12.691 24.8673 12.8802 24.909 12.8904C25.0295 12.9186 26.5522 12.8558 26.5717 12.8189C26.5984 12.7683 26.5348 11.1687 26.5048 11.1587C26.491 11.1514 26.1133 11.1643 25.6679 11.1827ZM7.32112 8.45921L7.7097 7.72202L8.09828 6.98483L8.88155 7.3977L9.66481 7.81057L9.53055 7.98709C9.3509 8.21621 9.0449 8.79674 8.95982 9.06983L8.88764 9.28495L8.10438 8.87208L7.32112 8.45921ZM24.1545 15.6956C24.1147 15.8159 24.0044 16.0698 23.9048 16.2587C23.8052 16.4476 23.6581 16.6821 23.5838 16.7783L23.4471 16.9595L24.2304 17.3723L25.0136 17.7852L25.4022 17.048L25.7908 16.3108L25.0075 15.898L24.2243 15.4851L24.1545 15.6956ZM6.54026 11.9511C6.55458 11.9351 6.94903 11.9016 7.4177 11.8837L8.26867 11.8554L8.26082 12.0043C8.25664 12.0904 8.23214 12.472 8.20522 12.8582L8.15773 13.5514L7.72859 13.5725C7.5493 13.5757 7.30625 13.5854 7.11258 13.5932L6.94287 13.5999C6.74929 13.6097 6.58628 13.6062 6.58653 13.5946C6.56985 13.5034 6.52326 11.9834 6.54026 11.9511ZM21.2832 19.2219C21.0698 19.392 20.7738 19.6186 20.6199 19.7318C20.4685 19.8404 20.3495 19.9543 20.3628 19.9849C20.389 20.0693 21.171 21.2999 21.1921 21.2934C21.2768 21.2556 22.5571 20.435 22.5741 20.4028C22.5839 20.3844 22.4559 20.158 22.2914 19.9005C22.1594 19.69 21.9935 19.4295 21.8889 19.2653L21.8881 19.2641L21.8879 19.2637L21.8317 19.1754L21.6649 18.9109L21.2832 19.2219ZM8.19829 21.9744C7.88233 21.3898 8.20291 20.7817 8.86373 20.712L9.07625 20.6886L11.5044 21.9685L13.9325 23.2484L14.0333 23.4369C14.3492 24.0215 14.0286 24.6297 13.3678 24.6994L13.1553 24.7227L10.7272 23.4429L8.29908 22.163L8.19829 21.9744ZM7.69799 22.9235C7.03717 22.9932 6.71659 23.6014 7.03254 24.186C7.09069 24.299 7.20245 24.4109 7.30381 24.4644C7.46046 24.547 7.4716 24.5705 7.45857 24.8521C7.43526 25.2873 7.64828 26.0001 7.90615 26.3598C8.58285 27.2876 9.6633 27.6392 10.7265 27.2753C10.973 27.1874 11.2814 27.0379 11.4117 26.9359C11.6367 26.766 11.6624 26.7619 11.8191 26.8444C11.9205 26.8979 12.0759 26.9268 12.2021 26.9109C12.8629 26.8412 13.1835 26.233 12.8675 25.6485L12.7667 25.4599L10.3386 24.18L7.9105 22.9001L7.69799 22.9235Z" fill="#0074E4"/>
</svg>
